inDegrees=no
num_controls=7
num_derivatives=13
num_iterations=141
num_multipliers=7
num_parameters=0
num_slacks=7
num_states=26
objective=6.142009
objective_accelerations=0.639543
objective_balance=0.056952
objective_effort=0.546541
objective_height=4.782341
objective_ligament=0.116632
solver_duration=1458.909369
status=Solve_Succeeded
success=true
DataType=double
version=3
OpenSimVersion=4.4-2022-07-23-0e9fedc
endheader
time	/jointset/ground_pelvis/pelvis_tilt/value	/jointset/ground_pelvis/pelvis_tx/value	/jointset/ground_pelvis/pelvis_ty/value	/jointset/hip_l/hip_flexion_l/value	/jointset/hip_l/hip_adduction_l/value	/jointset/hip_l/hip_rotation_l/value	/jointset/back/lumbar_extension/value	/jointset/patellofemoral_l/patellar_flexion_l/value	/jointset/knee_l/knee_flexion_l/value	/jointset/knee_l/knee_adduction_l/value	/jointset/knee_l/knee_rotation_l/value	/jointset/ankle_l/ankle_angle_l/value	/jointset/subtalar_l/subtalar_angle_l/value	/jointset/ground_pelvis/pelvis_tilt/speed	/jointset/ground_pelvis/pelvis_tx/speed	/jointset/ground_pelvis/pelvis_ty/speed	/jointset/hip_l/hip_flexion_l/speed	/jointset/hip_l/hip_adduction_l/speed	/jointset/hip_l/hip_rotation_l/speed	/jointset/back/lumbar_extension/speed	/jointset/patellofemoral_l/patellar_flexion_l/speed	/jointset/knee_l/knee_flexion_l/speed	/jointset/knee_l/knee_adduction_l/speed	/jointset/knee_l/knee_rotation_l/speed	/jointset/ankle_l/ankle_angle_l/speed	/jointset/subtalar_l/subtalar_angle_l/speed	/forceset/tau_hip_flexion_l	/forceset/tau_hip_adduction_l	/forceset/tau_hip_rotation_l	/forceset/tau_knee_flexion_l	/forceset/tau_ankle_angle_l	/forceset/tau_subtalar_angle_l	/forceset/tau_lumbar_extension	lambda_cid13_p0	lambda_cid13_p1	lambda_cid13_p2	lambda_cid13_p3	lambda_cid13_p4	lambda_cid13_p5	lambda_cid14_p0	/jointset/ground_pelvis/pelvis_tilt/accel	/jointset/ground_pelvis/pelvis_tx/accel	/jointset/ground_pelvis/pelvis_ty/accel	/jointset/hip_l/hip_flexion_l/accel	/jointset/hip_l/hip_adduction_l/accel	/jointset/hip_l/hip_rotation_l/accel	/jointset/back/lumbar_extension/accel	/jointset/patellofemoral_l/patellar_flexion_l/accel	/jointset/knee_l/knee_flexion_l/accel	/jointset/knee_l/knee_adduction_l/accel	/jointset/knee_l/knee_rotation_l/accel	/jointset/ankle_l/ankle_angle_l/accel	/jointset/subtalar_l/subtalar_angle_l/accel	gamma_cid13_p0	gamma_cid13_p1	gamma_cid13_p2	gamma_cid13_p3	gamma_cid13_p4	gamma_cid13_p5	gamma_cid14_p0
0	-0.03681116126093013	0.05667254751402753	0.9203418002288041	0.3085811930696054	-0.2956371728255642	-0.3015351469319916	-0.3879500408040475	0.2499276582270326	0.249927658227084	-0.1745328047715404	-0.1744621962371112	-0.0008036543073733089	0.0004401022962227182	0	0	0	0	0	0	0	0	0	0	0	0	0	0.08637179746749786	-0.04113713128397753	-0.02129983171935299	-0.2528115277244152	0.1974611593480344	-0.02766170016440473	-0.01140132918656083	19.66792424949456	5.93577959087728	1.6080122236054	13.90977862250546	-615.6776856140724	-64.19902959850208	-23.19454717491135	-1.583051790012753	-2.317702973117269	-1.036277523776249	10.65133616540389	-0.7673719610470877	3.458527772927471	-7.626406790339267	9.918413991920351	9.918413991919207	1.593509294894755	-0.0887532780114717	1.456934237854552	-0.3340184610013249	6.194005003527732e-09	1.819044028367456e-07	5.656914264969216e-08	-1.186297314496227e-08	1.420666212797251e-07	1.600836582261092e-08	8.18782504618157e-09
0.01	-0.03688587077441553	0.05655844391419263	0.9202911156329019	0.3091006922028435	-0.2956757579640634	-0.301361317113375	-0.3883299469120539	0.2504138127632529	0.250413812763345	-0.1744570865683145	-0.1744628518479644	-0.0007325722229782025	0.0004225554197766165	-0.01486894368032075	-0.02266241577708957	-0.01009687509085915	0.1033517915641161	-0.007675043885886218	0.03460523627398596	-0.07543963431398484	0.09677934923543685	0.09677934923543564	0.01506767052852882	-0.0001203164126159092	0.01421713832123083	-0.003464140577483651	0.08038903697881385	-0.05481553066358033	-0.02049912630356491	-0.2485494970905772	0.1889366183199955	-0.01103238324826065	-0.005575578732292441	17.44699394851293	-0.7844434333735542	2.550303068951918	13.1054365462028	-618.6174550428707	-77.84367896855478	-23.20011652098535	-1.427880696849576	-2.216767620865673	-0.9903574749750849	10.09488913156718	-0.7613111224576268	3.437413041038669	-7.421503660722639	9.489960048977851	9.489960048978537	1.452037209459889	0.02795361383461198	1.404217046762669	-0.3458622792086181	-2.564122412767377e-08	1.821514624710681e-07	1.397343075495237e-07	2.076255026526003e-08	6.909533607460928e-09	-3.728395986843823e-08	-2.38604284853553e-10
0.02	-0.03710708273262245	0.05622246480841822	0.9201406692914438	0.3106372669476648	-0.2957898416454377	-0.3008462566347346	-0.3894480017449563	0.2518542137238035	0.2518542137238051	-0.1742329634040196	-0.1744643857354939	-0.0005192960718672788	0.0003717170529383839	-0.02930048895313554	-0.04437510118790184	-0.01995234911116237	0.2034151223143279	-0.0150997085756931	0.06824613200418557	-0.1476297449799256	0.1908492848557619	0.1908492848557653	0.02968099216216027	-0.000175655356357024	0.02843881334268295	-0.006658298078439033	0.07440627648994232	-0.06849393004321376	-0.01969842088826573	-0.244287466456804	0.1804120772918945	0.005596933667836986	0.0002501717218797632	15.30345459224374	-7.516449863423406	3.492453794304976	12.20316889125004	-620.3840465216226	-91.39200412705991	-23.2164673748875	-1.495572108512872	-2.127756899860647	-0.9879973096650647	9.993644002622796	-0.7172961218315197	3.265659664170416	-6.976502060731126	9.376531268897725	9.37653126889775	1.502639515914596	-0.07575778423631525	1.457841577899998	-0.2800218456955673	-5.747645325887527e-08	1.823985221053907e-07	2.228994724493552e-07	5.338807367548233e-08	-1.282475540648033e-07	-9.057628555948737e-08	-8.665033615888676e-09
0.03	-0.03747053272735593	0.05567397282672902	0.9198925938189811	0.3131585058490726	-0.2959767826139133	-0.3000003765937622	-0.391271614976846	0.2542219575765604	0.2542219575765721	-0.1738649140165931	-0.1744668085307413	-0.000164012146328643	0.0002903494480137312	-0.04330033531486095	-0.06517841044728483	-0.02964597021628391	0.3002963956352898	-0.02224104822779746	0.1007607952332887	-0.2165726674570144	0.2822554469773411	0.2822554469773509	0.04383580423175266	-0.0002995033706163468	0.04259626642853855	-0.009572854627095541	0.0671079994907838	-0.05949044297359742	-0.01886946195221459	-0.2384269786276122	0.176586384133134	0.001311607204249318	0.006741512485543167	13.87488614349215	-5.500638613346318	3.280091499240486	12.06982404551753	-621.8715264372833	-86.16234688921077	-23.24286715553654	-1.338821082413648	-2.034874421105285	-0.9575544317375273	9.454919967724937	-0.7054938954024	3.218981569361527	-6.775152251922638	8.956054642454388	8.956054642455387	1.357992496784158	0.02074476624360377	1.391443699207546	-0.2908717905937189	-8.097088688164957e-08	1.584463221518888e-07	2.903265694440145e-07	7.44958495878477e-08	-2.303458194959097e-07	-1.371674240486611e-07	-1.794714562784424e-08
0.04	-0.03797130722214977	0.05492179645602371	0.9195480801513067	0.3166324676778922	-0.2962337251806111	-0.2988344275370844	-0.3937690504156454	0.2574904422422598	0.2574904422422629	-0.1733580984195855	-0.1744701811908594	0.0003321956151263715	0.0001810964313740434	-0.05676538897321067	-0.08511197899112398	-0.03923998815353121	0.3939597077919608	-0.02910002821999434	0.1322599351456659	-0.2823941863632653	0.3709974474455656	0.370997447445579	0.05743423407343869	-0.0003656283342726014	0.05662358052557181	-0.01223538042147262	0.05980972249157844	-0.05048695590399867	-0.01804050301610981	-0.2325664907984698	0.1727606909743448	-0.002973719259366866	0.0132328532491933	12.51788853335056	-3.493137249790057	3.064231916811671	11.83728959354577	-622.2905445814813	-80.8382102663688	-23.27839127753836	-1.388613567838964	-1.953808756750796	-0.9680766760902025	9.350051769764441	-0.660824189850166	3.062555000825489	-6.352221346564233	8.84369893822654	8.843698938226009	1.391363070332955	-0.06421317411541402	1.431813780136683	-0.2296156948394297	-1.042933453393017e-07	1.339951683924523e-07	3.574291701932063e-07	9.536614617036036e-08	-3.317624597261676e-07	-1.836203937295488e-07	-2.724690058167447e-08
0.05	-0.03860450388878947	0.0539747450241541	0.9191078911300604	0.3210275770645293	-0.2965577074086194	-0.2973591001771534	-0.3969088519556992	0.2616333285109336	0.2616333285109689	-0.1727179232236195	-0.1744744132127644	0.0009681729147711269	4.667145341546007e-05	-0.06979371147945775	-0.1041412438993948	-0.0487977021329497	0.4845278158446784	-0.03564003291563188	0.1626293811229597	-0.3450612010393847	0.4571342393858997	0.4571342393858806	0.07050206968842913	-0.0004682880366986506	0.07055760300456097	-0.01459599239261888	0.05286589507597152	-0.04999423416515562	-0.01722973072745797	-0.2282909458030058	0.1683221142290933	0.0002400999353930564	0.01944918422533037	11.24868722052105	-4.670357047522526	3.256123281138099	11.1741263315276	-622.7607551770241	-82.30773243557719	-23.32186590680585	-1.247910700264155	-1.853906590563952	-0.9496688364195022	8.830025625860323	-0.6421949336056229	2.997666326586972	-6.148203438754676	8.431839809886295	8.431839809881808	1.24974006149154	0.01863946436388092	1.372054648293609	-0.2313024841221191	-1.202047167632408e-07	8.726107893691723e-08	3.991848343828169e-07	1.083996307315454e-07	-4.071543545754053e-07	-2.186117932781704e-07	-3.596579195621254e-08
0.06	-0.03936557760210523	0.05284211669666527	0.9185721149535094	0.3263123345922869	-0.2969454109484191	-0.2955853729713702	-0.4006601760246299	0.266624216796623	0.2666242167966249	-0.1719500204205986	-0.1744792854651007	0.001743062072510379	-0.0001097633514284664	-0.08234079831572405	-0.1222273581149667	-0.05835741921448003	0.5718893360108266	-0.04184429057865746	0.1919399043165022	-0.4046986921404183	0.5405978508442015	0.5405978508441496	0.0829797554797858	-0.0004936744322985068	0.08440595214410011	-0.01663734579856125	0.04592206766033831	-0.04950151242635435	-0.01641895843897908	-0.2240154008075633	0.1638835374838023	0.003453919130098793	0.02566551520148501	10.04236037995429	-5.856824041671072	3.447476765242185	10.41468104495856	-622.2885964363066	-83.69616030742093	-23.37195725972278	-1.29236643384399	-1.765178618209982	-0.968477296512555	8.708734192450384	-0.59367478332789	2.850770444075525	-5.746316631547709	8.309062841819818	8.309062841819204	1.273333105605899	-0.04875851274981997	1.414679112247795	-0.165763981798374	-1.358040424173393e-07	3.958876060996751e-08	4.398732591383397e-07	1.211031442602535e-07	-4.814504706717579e-07	-2.531206004001702e-07	-4.466022591688568e-08
0.07000000000000001	-0.04025010996263976	0.05153330513230981	0.9179405258159333	0.3324555117319061	-0.2973933852952447	-0.2935243469599536	-0.4049925728595569	0.2724368810875788	0.2724368810876051	-0.1710600849385109	-0.1744846021923644	0.002656062203244376	-0.0002848989330187395	-0.09448691414271375	-0.1393799657254187	-0.06797395509542169	0.6562262351002864	-0.04769102690642937	0.220087533336706	-0.4613011727284793	0.6214959056317346	0.6214959056316713	0.09490037391178575	-0.0005566100777207694	0.09817286888962627	-0.01833569280999907	0.03882118046547026	-0.04666925586552419	-0.01563107157503956	-0.2201950219467572	0.1605220149500771	0.004331334333417393	0.03190500370024625	9.079591487238483	-6.085786752263783	3.50279812387266	9.727531934168452	-621.9408542325441	-83.03075201516097	-23.42714401086618	-1.163921039475067	-1.667029100444118	-0.9603709436751339	8.218177749255497	-0.5712982549085104	2.770026978455433	-5.545288456697202	7.914320576436976	7.914320576435761	1.135428356780575	0.0169745994677273	1.354513540477684	-0.1638143741684651	-1.459610246635973e-07	-2.354576491209068e-08	4.664460791323985e-07	1.263005948347437e-07	-5.294392143403711e-07	-2.809036337205534e-07	-5.368674325888113e-08
